<?xml version="1.0" standalone="no"?><!DOCTYPE svg PUBLIC "-//W3C//DTD SVG 1.1//EN" "http://www.w3.org/Graphics/SVG/1.1/DTD/svg11.dtd"><svg t="1778589779627" class="icon" viewBox="0 0 1024 1024" version="1.1" xmlns="http://www.w3.org/2000/svg" p-id="2572" width="20" height="20" xmlns:xlink="http://www.w3.org/1999/xlink"><path d="M497.152 128.512c-212.096 0-384 171.904-384 384s171.904 384 384 384 384-171.904 384-384-171.904-384-384-384z m107.52 572.16c-31.488 21.76-73.6 32.64-126.336 32.64-41.472 0-79.744-6.528-114.944-19.712v-92.16c38.144 23.296 75.52 34.816 112.128 34.816 45.952 0 68.992-12.288 68.992-36.864 0-17.536-18.944-32.128-56.96-43.776-47.36-14.72-80-31.104-97.664-49.152-17.536-18.048-26.368-42.496-26.368-73.344 0-37.504 15.232-66.944 45.568-88.192 30.336-21.248 70.144-31.872 119.424-31.872 34.944 0 68.608 5.12 101.12 15.488v87.68c-29.696-17.536-62.336-26.24-98.048-26.24-17.664 0-32 3.2-42.752 9.472-10.88 6.272-16.256 14.72-16.256 24.96 0 17.536 16.128 31.616 48.256 42.496 34.56 11.52 60.416 22.016 77.824 31.36 17.408 9.472 30.592 21.888 39.68 37.248 9.088 15.36 13.568 33.28 13.568 53.504 0 39.424-15.744 70.016-47.232 91.648z" fill="#FF5C2A" p-id="2573"></path></svg>