<?xml version="1.0" standalone="no"?><!DOCTYPE svg PUBLIC "-//W3C//DTD SVG 1.1//EN" "http://www.w3.org/Graphics/SVG/1.1/DTD/svg11.dtd"><svg t="1778512996948" class="icon" viewBox="0 0 1025 1024" version="1.1" xmlns="http://www.w3.org/2000/svg" p-id="10246" xmlns:xlink="http://www.w3.org/1999/xlink" width="32.03125" height="32"><path d="M282.994 659.834c0-6.748-1.636-12.882-3.68-18.403l21.469-10.223-6.134-12.269-21.061 10.224c-8.792-13.904-23.719-23.719-40.077-26.173v-46.21h-13.29v45.597c-29.854 2.658-52.959 27.195-52.959 57.457 0 31.898 25.764 57.457 58.07 57.457 17.994 0 33.943-8.18 44.166-21.061l32.92 15.949 6.135-12.268-31.285-15.336c3.068-7.36 5.726-15.949 5.726-24.741zM220.22 432.256v46.21h13.29v-46.824c15.95-2.658 29.853-11.246 39.055-24.128l22.083 10.837 6.134-12.268-22.083-10.837c2.658-6.748 4.09-13.29 4.09-20.447 0-6.748-1.023-13.291-3.681-19.425l28.83-13.904-6.134-12.269-28.83 13.904c-10.838-16.357-28.831-26.172-48.256-26.172-31.898 0-58.07 25.763-58.07 58.07 0.818 30.058 23.923 54.799 53.572 57.253z m520.792-57.457c0 8.179 1.636 15.949 4.703 22.696l-20.448 9.815 6.135 12.268 21.06-10.223c9.815 12.881 24.128 21.06 40.077 22.492v45.188h13.29v-45.188c28.831-3.68 50.301-28.218 50.301-57.048 0-31.898-25.764-58.07-58.07-58.07-19.016 0-37.01 9.814-47.847 25.763l-25.763-12.268-6.135 12.268 25.15 12.268c-1.022 6.135-2.453 13.496-2.453 20.039zM506.278 575.59v5.725h13.29v-5.725c17.381-2.045 32.92-11.86 42.122-26.786l33.33 16.358 6.133-12.268-33.942-16.358c2.045-5.725 3.067-11.86 3.067-18.403s-1.636-12.882-3.067-18.402l33.942-16.358-6.134-12.269-33.942 16.358c-9.202-14.926-24.741-24.128-42.122-26.172v-2.658h-13.29v2.658c-16.972 2.044-31.898 11.246-41.1 25.15l-33.942-16.358-6.134 12.268 33.942 16.358c-2.044 6.134-3.68 12.882-3.68 20.039 0 6.747 1.636 13.29 3.68 19.425L424.49 554.53l6.134 12.269 33.943-16.358c9.405 13.904 24.74 23.105 41.712 25.15z m0 83.63h13.29v55.412h-13.29V659.22z m0-66.659h13.29v55.412h-13.29v-55.412z m0-200.792h13.29v55.412h-13.29V391.77z m0-66.658h13.29v55.412h-13.29v-55.412zM220.221 489.304h13.29v55.412h-13.29v-55.412z m572.523-1.023h13.291v55.412h-13.29v-55.412zM305.077 613.623l49.891-24.741 6.134 12.268-49.891 24.741-6.134-12.268z m60.115-29.853l49.891-24.741 6.134 12.268-49.891 24.741-6.134-12.268z m289.942-141.7l6.134 12.269-49.89 24.74-6.135-12.267 49.891-24.742z m10.428-5.112l6.135 12.269 49.89-24.741-6.133-12.269-49.892 24.741zM806.24 597.265v-41.508h-13.291v41.508c-18.403 2.045-34.965 12.882-43.553 28.83l-17.38-8.791-6.134 12.268 17.993 8.792c-1.635 5.112-2.658 10.224-2.658 15.95 0 12.267 3.68 23.718 10.224 32.92L726.7 699.092l6.134 12.268 28.217-13.904c10.224 9.201 24.128 14.926 38.032 14.926 31.898 0 58.07-25.763 58.07-57.456-0.613-30.058-22.287-54.186-50.913-57.662z m-451.476-149.47l6.134-12.268-49.892-24.741-6.134 12.268 49.892 24.742z m66.249 17.38l-6.134 12.27-49.892-24.742 6.134-12.268 49.892 24.74z m240.255 117.573l-49.686-24.537-6.135 12.268 49.892 24.741 5.93-12.472z m60.115 29.853l-49.89-24.742-6.135 12.269 49.891 24.741 6.134-12.268z m-66.249-316.933l-49.891-24.741-6.134 12.268L649 307.936l6.134-12.268z m60.115 29.444l-49.891-24.741-6.134 12.268 49.891 24.741 6.134-12.268zM312.233 717.29l49.892 24.74 6.134-12.267-49.892-24.742-6.134 12.269z m60.115 29.24l49.892 24.74 6.134-12.268-49.891-24.741-6.135 12.268z m-4.09-434.914l-6.133-12.269-49.892 24.741 6.134 12.269 49.892-24.741z m53.777-41.1l6.134 12.269-49.891 24.741-6.134-12.268 49.891-24.741z m15.95 7.362l28.216-13.905c9.202 12.269 23.72 21.061 39.464 23.106v27.195h13.29V287.08c15.95-1.636 30.262-10.224 39.464-23.106l29.853 14.927 6.134-12.268-29.24-14.314c12.269-29.24-1.636-63.182-30.875-75.45-29.24-12.268-63.182 1.636-75.45 30.875-6.135 14.314-6.135 30.262 0 44.575l-26.787 13.291 5.93 12.269z m158.67 484.6l-32.92 15.95c-8.792-16.359-25.15-27.81-44.166-29.854v-22.492h-13.291v22.492c-17.994 2.045-33.329 12.268-42.53 27.808l-25.15-12.268-6.135 12.268 25.56 12.882c-2.045 5.725-3.068 11.246-3.068 17.38 1.023 31.898 27.195 57.048 59.093 56.435 30.875-1.022 55.412-25.764 56.435-56.435 0-5.111-0.614-9.814-2.045-14.313l33.942-16.358-5.725-13.495z m9.815-4.498l6.134 12.268 49.891-24.741-6.134-12.268-49.891 24.74z m60.115-29.853l6.134 12.268 49.891-24.741-6.134-12.268-49.891 24.74z m0 0" fill="#666666" p-id="10247"></path><path d="M1023.799 512c0 282.99-229.01 512-512 512S0.003 794.786 0.003 512c0-282.99 229.01-512 512-512S1023.8 229.01 1023.8 512zM512.003 52.958C258.253 52.958 52.962 258.25 52.962 512s205.29 459.042 459.041 459.042S971.045 765.75 971.045 512 765.55 52.958 512.003 52.958z m0 0" fill="#666666" p-id="10248"></path></svg>