<?xml version="1.0" standalone="no"?><!DOCTYPE svg PUBLIC "-//W3C//DTD SVG 1.1//EN" "http://www.w3.org/Graphics/SVG/1.1/DTD/svg11.dtd"><svg t="1778512696952" class="icon" viewBox="0 0 1024 1024" version="1.1" xmlns="http://www.w3.org/2000/svg" p-id="6718" xmlns:xlink="http://www.w3.org/1999/xlink" width="32" height="32"><path d="M86.656 636.416a42.666667 42.666667 0 0 1 43.904 2.346667l60.8 41.088a42.666667 42.666667 0 0 1-24.32 77.952c27.050667 61.098667 82.858667 106.069333 149.461333 117.418666a42.666667 42.666667 0 0 1-14.336 84.138667C166.570667 936.277333 64 816.981333 64 674.090667a42.666667 42.666667 0 0 1 22.656-37.674667zM351.232 100.437333a106.666667 106.666667 0 0 1 150.869333 0l421.461334 421.504a106.666667 106.666667 0 0 1 0 150.826667l-250.794667 250.837333a106.666667 106.666667 0 0 1-150.869333 0l-421.461334-421.546666a106.666667 106.666667 0 0 1 0-150.826667l250.794667-250.794667z m90.538667 60.330667a21.333333 21.333333 0 0 0-30.208 0L160.768 411.605333a21.333333 21.333333 0 0 0 0 30.165334l421.461333 421.504a21.333333 21.333333 0 0 0 30.165334 0l250.88-250.88a21.333333 21.333333 0 0 0 0-30.122667l-421.546667-421.546667z m230.826666-61.269333a42.666667 42.666667 0 0 1 49.194667-34.858667c135.594667 23.04 238.165333 142.336 238.165333 285.226667a42.709333 42.709333 0 0 1-66.56 35.370666l-60.8-41.088a42.666667 42.666667 0 0 1 24.32-78.08c-27.093333-61.056-82.858667-106.026667-149.461333-117.333333a42.666667 42.666667 0 0 1-34.858667-49.237333z" fill="#000000" p-id="6719"></path></svg>