<?xml version="1.0" standalone="no"?><!DOCTYPE svg PUBLIC "-//W3C//DTD SVG 1.1//EN" "http://www.w3.org/Graphics/SVG/1.1/DTD/svg11.dtd"><svg t="1778809213183" class="icon" viewBox="0 0 1024 1024" version="1.1" xmlns="http://www.w3.org/2000/svg" p-id="2601" width="32" height="32" xmlns:xlink="http://www.w3.org/1999/xlink"><path d="M568.192 128a29.568 29.568 0 1 1 0 59.072H258.816a71.68 71.68 0 0 0-71.68 71.744v506.368c0 39.68 32 71.68 71.68 71.68h506.368a71.68 71.68 0 0 0 71.68-71.68V512A29.568 29.568 0 1 1 896 512v253.184A130.816 130.816 0 0 1 765.184 896H258.816A130.816 130.816 0 0 1 128 765.184V258.816C128 186.56 186.56 128 258.816 128h309.376z m273.024 9.536a32 32 0 0 1 45.568 44.928L407.04 667.84a32 32 0 0 1-45.504-44.928l479.616-485.376z" fill="#999999" p-id="2602"></path></svg>